<?xml version="1.0" standalone="no"?>
<!DOCTYPE svg PUBLIC "-//W3C//DTD SVG 20010904//EN"
 "http://www.w3.org/TR/2001/REC-SVG-20010904/DTD/svg10.dtd">
<svg version="1.0" xmlns="http://www.w3.org/2000/svg"
 width="500.000000pt" height="500.000000pt" viewBox="0 0 500.000000 500.000000"
 preserveAspectRatio="xMidYMid meet">

<g transform="translate(0.000000,500.000000) scale(0.100000,-0.100000)"
fill="#000000" stroke="none">
<path d="M0 2500 l0 -2500 2500 0 2500 0 0 2500 0 2500 -2500 0 -2500 0 0
-2500z m3536 1681 c-3 -20 -7 -74 -10 -121 -10 -153 -57 -744 -62 -777 -5 -34
-4 -34 -175 -82 -104 -30 -112 -25 -105 58 4 36 20 253 37 481 16 228 32 417
35 420 10 10 259 67 272 62 9 -3 12 -16 8 -41z m868 43 c9 -3 16 -11 16 -17 0
-21 -83 -232 -94 -239 -6 -4 -56 -8 -111 -8 l-101 0 -28 -312 c-15 -172 -30
-329 -33 -348 l-5 -36 -125 -43 c-80 -28 -128 -40 -134 -34 -10 10 0 169 46
716 l5 57 -120 0 c-100 0 -120 2 -120 15 0 11 65 195 75 212 1 2 459 28 635
36 36 2 68 4 72 5 3 1 13 -1 22 -4z m-3146 -61 c70 -4 92 -9 92 -20 0 -8 -72
-149 -160 -315 -88 -165 -160 -304 -160 -310 0 -6 56 -9 157 -7 118 3 157 1
161 -9 4 -13 -101 -228 -124 -252 -12 -13 -64 -15 -314 -18 -287 -3 -299 -2
-309 16 -9 16 18 70 164 326 96 168 175 311 175 316 0 6 -68 10 -179 10 -99 0
-182 4 -185 9 -7 10 76 215 96 239 7 8 21 18 33 23 20 9 379 4 553 -8z m1338
-203 c-7 -53 -3 -58 29 -36 46 31 139 57 206 57 106 1 174 -44 221 -146 20
-44 23 -65 22 -175 0 -110 -3 -133 -26 -191 -33 -84 -64 -133 -119 -186 -93
-89 -218 -111 -327 -56 -31 15 -60 29 -63 31 -4 1 -10 -46 -14 -105 -4 -59
-10 -128 -14 -152 l-6 -44 -121 -33 c-67 -17 -127 -28 -134 -24 -10 6 -3 116
29 506 23 275 43 509 46 520 4 19 18 24 94 38 49 9 108 23 132 30 24 8 46 14
48 15 2 1 1 -21 -3 -49z m-443 -294 c-35 -306 -35 -321 -19 -349 9 -17 13 -33
9 -37 -14 -12 -181 -80 -196 -80 -9 0 -20 18 -27 46 l-13 45 -31 -30 c-113
-110 -304 -72 -401 80 -94 146 -65 400 61 539 20 22 63 53 96 70 51 25 73 30
132 30 60 0 80 -5 125 -30 56 -31 71 -31 71 0 0 14 10 21 34 25 59 12 181 21
188 16 3 -4 -10 -150 -29 -325z m792 -1141 c73 -73 -37 -184 -112 -113 -50 47
-12 138 57 138 19 0 40 -9 55 -25z m-1326 -176 c22 -8 30 -16 27 -28 -3 -9
-10 -37 -17 -63 -11 -46 -12 -47 -32 -33 -28 20 -86 19 -109 -2 -16 -14 -18
-33 -18 -139 0 -67 4 -134 10 -148 l10 -26 -78 0 -77 0 3 169 3 169 -24 19
-25 19 45 12 c25 7 63 21 86 32 22 11 42 20 44 20 2 0 3 -24 3 -52 l0 -53 23
40 c13 23 37 48 57 57 19 10 35 18 36 18 1 0 15 -5 33 -11z m384 -16 c63 -32
87 -125 45 -178 -30 -38 -76 -55 -150 -55 l-63 0 42 19 c50 23 78 61 69 96 -9
35 -49 33 -87 -4 -28 -28 -34 -51 -29 -111 4 -63 84 -93 139 -52 l28 21 38
-39 c37 -37 37 -40 22 -63 -48 -74 -200 -85 -283 -22 -66 51 -95 173 -64 271
37 115 182 173 293 117z m445 0 c44 -27 55 -75 53 -229 -1 -77 3 -153 8 -167
l11 -27 -78 0 -77 0 3 154 3 155 -27 17 c-25 17 -28 17 -55 1 -16 -9 -29 -14
-29 -12 0 3 12 30 27 60 21 43 34 58 58 64 35 10 70 5 103 -16z m245 5 c10 -5
27 -24 37 -41 17 -28 20 -51 20 -184 0 -83 4 -163 10 -177 l10 -26 -78 0 -77
0 3 141 c2 78 1 152 -2 164 -8 30 -51 41 -82 20 -30 -19 -30 -18 3 50 21 43
34 58 58 64 31 9 67 5 98 -11z m1087 1 c31 -12 52 -42 60 -89 l6 -35 32 62
c17 34 36 65 42 68 19 12 75 10 106 -3 53 -22 58 -42 65 -227 3 -93 9 -178 13
-187 7 -16 1 -18 -72 -18 l-81 0 10 32 c12 43 12 240 -1 272 -19 51 -86 43
-110 -13 -13 -32 -10 -242 4 -273 7 -16 1 -18 -74 -18 -75 0 -81 2 -74 18 14
30 17 251 4 283 -23 54 -86 48 -110 -10 -13 -33 -10 -241 4 -273 7 -16 0 -18
-74 -18 -75 0 -81 2 -74 18 4 9 10 76 12 148 4 143 -9 204 -45 204 -10 0 16
12 57 26 41 14 79 30 85 35 19 19 25 7 25 -51 0 -33 3 -60 8 -60 4 0 21 26 37
57 38 73 65 83 145 52z m-2623 -4 c56 -17 107 -65 120 -113 5 -15 8 -63 8
-107 -1 -63 -6 -90 -24 -128 -25 -51 -70 -87 -108 -87 -29 0 -73 20 -74 34 0
6 -11 34 -24 61 l-25 50 4 -140 c1 -77 6 -148 11 -157 6 -16 -1 -18 -75 -18
-80 0 -81 0 -73 23 4 12 8 141 8 287 0 146 -4 275 -8 288 -8 22 -8 22 101 22
68 0 127 -6 159 -15z m1094 -52 c0 -38 0 -124 -1 -193 -1 -69 3 -138 9 -153
l11 -27 -78 0 -77 0 3 169 3 169 -25 20 -26 20 33 6 c17 3 55 17 82 30 28 14
53 25 58 25 4 1 7 -29 8 -66z m699 -127 c0 -107 4 -206 10 -220 l10 -26 -78 0
-77 0 3 169 3 169 -25 20 -26 20 33 6 c17 3 55 17 82 30 28 14 53 25 58 25 4
1 7 -86 7 -193z m190 52 c0 -95 5 -151 13 -168 16 -32 56 -37 87 -12 20 16 23
27 24 103 1 101 -7 135 -35 144 -17 6 -5 12 52 32 41 13 78 29 84 34 5 5 13 9
17 9 4 0 8 -74 8 -165 0 -168 8 -215 39 -215 18 -1 -97 -70 -116 -70 -21 0
-45 47 -46 89 -1 50 -11 44 -43 -25 -21 -46 -29 -54 -58 -60 -50 -9 -104 12
-127 50 -15 25 -19 50 -19 136 0 125 -12 176 -42 186 -18 5 -12 10 33 24 29 9
68 24 84 33 17 9 33 16 38 17 4 0 7 -64 7 -142z m-1911 -486 c36 -27 41 -84 9
-106 -12 -9 -39 -16 -60 -16 -35 0 -38 -2 -38 -30 0 -17 7 -33 18 -39 13 -8 6
-10 -32 -11 -39 0 -47 3 -38 12 15 15 17 198 2 198 -5 0 -10 5 -10 11 0 19
119 4 149 -19z m248 3 c34 -23 40 -61 13 -97 l-22 -30 32 -39 31 -39 -40 0
c-31 0 -39 3 -35 14 8 21 -23 63 -51 69 -23 4 -25 1 -25 -29 0 -21 6 -37 18
-43 13 -8 6 -10 -33 -10 -27 0 -44 3 -37 6 16 6 17 203 1 203 -5 0 -7 5 -3 11
9 16 121 4 151 -16z m273 10 c40 -21 66 -91 51 -138 -21 -64 -77 -94 -142 -77
-55 15 -82 58 -76 123 8 89 87 133 167 92z m276 -10 c8 -33 -1 -43 -16 -16 -8
15 -20 21 -46 21 l-35 0 3 -47 c3 -53 23 -67 52 -38 15 15 17 14 26 -11 12
-30 6 -44 -12 -26 -7 7 -25 12 -40 12 -26 0 -28 -3 -28 -40 0 -27 6 -42 18
-49 13 -8 6 -10 -32 -11 -39 0 -47 3 -38 12 15 15 17 198 1 198 -5 0 -7 5 -4
10 3 6 37 10 75 10 66 0 70 -1 76 -25z m235 -7 c9 -33 -1 -37 -19 -8 -8 14
-23 20 -47 20 -35 0 -35 0 -35 -45 0 -41 2 -45 24 -45 13 0 27 6 29 13 7 16
27 -11 27 -37 0 -16 -3 -17 -12 -8 -7 7 -25 12 -40 12 -26 0 -28 -3 -28 -40 0
-27 5 -43 15 -46 26 -10 59 4 77 33 17 27 17 27 18 5 0 -51 -11 -57 -101 -54
-60 3 -79 6 -66 13 14 8 17 25 17 100 0 70 -3 91 -15 95 -35 14 2 25 73 22 73
-3 76 -4 83 -30z m219 -2 c14 -40 5 -45 -21 -12 -16 21 -28 26 -53 24 -26 -2
-32 -8 -34 -31 -3 -24 2 -30 42 -48 59 -26 83 -60 68 -95 -15 -31 -54 -47 -87
-34 -16 6 -26 6 -31 -1 -9 -15 -24 10 -24 41 l0 25 26 -28 c34 -37 78 -35 82
5 3 24 -3 30 -52 53 -58 27 -72 49 -62 91 8 30 37 43 93 41 37 -2 44 -6 53
-31z m221 8 c16 -40 9 -48 -19 -21 -32 31 -79 36 -89 11 -9 -25 9 -46 56 -69
64 -31 80 -74 41 -110 -18 -16 -35 -19 -97 -13 -21 1 -33 16 -33 41 0 17 4 16
31 -7 35 -29 61 -33 79 -11 19 23 5 44 -42 64 -74 31 -94 76 -54 116 22 22 33
25 73 22 34 -3 49 -10 54 -23z m159 16 c0 -5 -4 -10 -10 -10 -15 0 -13 -183 2
-198 9 -9 2 -12 -32 -12 -34 0 -41 3 -32 12 15 15 17 198 1 198 -5 0 -7 5 -4
10 3 6 22 10 41 10 19 0 34 -4 34 -10z m246 -9 c22 -13 34 -32 44 -64 11 -41
10 -50 -6 -84 -40 -81 -150 -92 -195 -20 -37 60 -13 153 46 178 34 14 79 10
111 -10z m215 -61 c34 -44 65 -80 69 -80 11 0 0 134 -11 138 -17 7 2 22 26 22
28 0 41 -15 20 -24 -12 -4 -15 -24 -15 -86 0 -45 5 -90 10 -101 9 -16 7 -19
-12 -19 -17 1 -39 23 -83 81 l-60 81 -3 -67 c-2 -55 0 -70 15 -81 16 -12 14
-13 -21 -14 -38 0 -39 1 -22 19 14 15 17 34 15 88 -1 37 -8 78 -15 89 -14 23
-9 34 12 34 7 0 41 -36 75 -80z m309 59 c0 -29 50 -170 68 -191 14 -17 12 -18
-25 -18 -37 0 -40 2 -36 23 6 30 -18 55 -49 51 -12 -1 -28 -3 -35 -3 -18 -1
-26 -40 -13 -56 11 -13 7 -15 -20 -15 -25 0 -30 3 -22 13 16 19 72 186 66 200
-3 9 7 14 31 15 30 2 35 -1 35 -19z m215 11 c3 -5 1 -10 -4 -10 -15 0 -15
-187 0 -195 19 -12 58 5 74 33 l16 27 -5 -39 c-3 -21 -6 -39 -8 -40 -2 -1 -39
1 -83 4 -47 3 -73 8 -62 12 14 6 17 21 17 98 0 71 -3 92 -15 96 -8 4 -12 10
-9 15 7 12 71 11 79 -1z"/>
<path d="M2637 3770 c-26 -16 -51 -40 -56 -53 -5 -12 -12 -79 -16 -148 l-7
-125 31 -32 c106 -106 231 9 231 213 0 161 -70 217 -183 145z"/>
<path d="M1780 3797 c-30 -15 -67 -68 -80 -116 -17 -62 -12 -191 9 -238 21
-46 45 -63 88 -63 28 0 93 33 93 48 0 4 9 70 20 147 11 77 20 150 20 162 0 42
-103 84 -150 60z"/>
<path d="M1037 2223 c-4 -3 -7 -40 -7 -80 0 -65 3 -77 25 -98 54 -55 105 -19
105 73 0 46 -4 58 -29 83 -28 28 -77 39 -94 22z"/>
<path d="M1140 1670 c0 -57 1 -60 24 -60 32 0 56 25 56 59 0 33 -27 61 -58 61
-20 0 -22 -5 -22 -60z"/>
<path d="M1380 1675 l0 -55 35 0 c35 0 55 20 55 54 0 24 -37 56 -65 56 -24 0
-25 -3 -25 -55z"/>
<path d="M1636 1708 c-44 -62 4 -178 72 -178 62 0 77 125 21 181 -26 26 -74
25 -93 -3z"/>
<path d="M2986 1708 c-44 -62 4 -178 72 -178 62 0 77 125 21 181 -26 26 -74
25 -93 -3z"/>
<path d="M3571 1680 c-7 -23 -15 -48 -18 -56 -4 -10 4 -14 32 -14 40 0 39 -5
11 79 l-12 33 -13 -42z"/>
</g>
</svg>
