<?xml version="1.0" standalone="no"?>
<!DOCTYPE svg PUBLIC "-//W3C//DTD SVG 20010904//EN"
 "http://www.w3.org/TR/2001/REC-SVG-20010904/DTD/svg10.dtd">
<svg version="1.0" xmlns="http://www.w3.org/2000/svg"
 width="500.000000pt" height="500.000000pt" viewBox="0 0 500.000000 500.000000"
 preserveAspectRatio="xMidYMid meet">

<g transform="translate(0.000000,500.000000) scale(0.100000,-0.100000)"
fill="#000000" stroke="none">
<path d="M0 2500 l0 -2500 2500 0 2500 0 0 2500 0 2500 -2500 0 -2500 0 0
-2500z m3536 1681 c-3 -20 -7 -74 -10 -121 -10 -153 -57 -744 -62 -777 -5 -34
-4 -34 -175 -82 -104 -30 -112 -25 -105 58 4 36 20 253 37 481 16 228 32 417
35 420 10 10 259 67 272 62 9 -3 12 -16 8 -41z m868 43 c9 -3 16 -11 16 -17 0
-21 -83 -232 -94 -239 -6 -4 -56 -8 -111 -8 l-101 0 -28 -312 c-15 -172 -30
-329 -33 -348 l-5 -36 -125 -43 c-80 -28 -128 -40 -134 -34 -10 10 0 169 46
716 l5 57 -120 0 c-100 0 -120 2 -120 15 0 11 65 195 75 212 1 2 459 28 635
36 36 2 68 4 72 5 3 1 13 -1 22 -4z m-3146 -61 c70 -4 92 -9 92 -20 0 -8 -72
-149 -160 -315 -88 -165 -160 -304 -160 -310 0 -6 56 -9 157 -7 118 3 157 1
161 -9 4 -13 -101 -228 -124 -252 -12 -13 -64 -15 -314 -18 -287 -3 -299 -2
-309 16 -9 16 18 70 164 326 96 168 175 311 175 316 0 6 -68 10 -179 10 -99 0
-182 4 -185 9 -7 10 76 215 96 239 7 8 21 18 33 23 20 9 379 4 553 -8z m1338
-203 c-7 -53 -3 -58 29 -36 46 31 139 57 206 57 106 1 174 -44 221 -146 20
-44 23 -65 22 -175 0 -110 -3 -133 -26 -191 -33 -84 -64 -133 -119 -186 -93
-89 -218 -111 -327 -56 -31 15 -60 29 -63 31 -4 1 -10 -46 -14 -105 -4 -59
-10 -128 -14 -152 l-6 -44 -121 -33 c-67 -17 -127 -28 -134 -24 -10 6 -3 116
29 506 23 275 43 509 46 520 4 19 18 24 94 38 49 9 108 23 132 30 24 8 46 14
48 15 2 1 1 -21 -3 -49z m-443 -294 c-35 -306 -35 -321 -19 -349 9 -17 13 -33
9 -37 -14 -12 -181 -80 -196 -80 -9 0 -20 18 -27 46 l-13 45 -31 -30 c-113
-110 -304 -72 -401 80 -94 146 -65 400 61 539 20 22 63 53 96 70 51 25 73 30
132 30 60 0 80 -5 125 -30 56 -31 71 -31 71 0 0 14 10 21 34 25 59 12 181 21
188 16 3 -4 -10 -150 -29 -325z m-743 -1141 c72 -77 -41 -185 -115 -110 -16
15 -25 36 -25 55 0 71 91 107 140 55z m1075 -175 l45 0 0 -60 0 -60 -45 0 -45
0 0 -94 c0 -107 9 -122 64 -113 33 5 34 5 40 -40 7 -55 5 -60 -43 -74 -78 -23
-161 17 -181 89 -5 20 -10 81 -10 134 0 82 -3 97 -16 100 -15 3 -20 41 -15
106 1 5 22 23 49 40 26 16 61 45 77 62 l30 31 3 -60 3 -61 44 0z m1173 -2 l47
-3 3 -57 3 -57 -48 -3 -48 -3 -3 -67 c-2 -37 1 -82 6 -100 8 -31 11 -33 50
-32 38 1 42 -2 47 -30 4 -17 9 -38 11 -48 7 -23 -74 -53 -122 -45 -90 15 -114
60 -114 217 0 103 -1 110 -20 110 -18 0 -20 7 -20 58 0 56 1 57 43 84 23 15
58 42 77 60 l35 33 3 -57 3 -57 47 -3z m-1858 -9 c48 -18 55 -42 61 -224 3
-93 9 -178 13 -187 7 -16 1 -18 -74 -18 -75 0 -81 2 -74 18 10 23 18 225 9
268 -11 63 -81 71 -111 13 -12 -25 -15 -55 -12 -148 2 -64 8 -124 12 -133 7
-16 1 -18 -72 -18 l-81 0 10 32 c12 45 11 258 -2 296 -6 17 -18 33 -27 37 -12
4 10 17 68 38 l85 32 5 -65 5 -65 35 65 c44 80 69 90 150 59z m413 -6 c38 -12
47 -19 42 -32 -4 -9 -11 -37 -17 -63 l-11 -47 -40 20 c-22 12 -64 23 -94 26
-49 5 -55 4 -52 -12 3 -13 26 -26 75 -42 97 -32 135 -65 141 -123 8 -80 -56
-142 -162 -156 -47 -7 -126 8 -162 31 -20 14 -21 17 -8 66 8 28 16 53 18 56 3
2 20 -3 38 -13 45 -23 142 -25 147 -3 2 11 -14 20 -55 33 -129 41 -170 81
-160 159 14 106 144 149 300 100z m627 5 c96 -29 130 -86 130 -220 0 -110 5
-133 31 -144 16 -8 9 -14 -46 -44 l-65 -35 -20 21 c-13 12 -23 39 -27 72 l-6
53 -43 -64 c-23 -36 -50 -67 -59 -71 -51 -19 -119 11 -136 61 -36 109 60 211
187 201 30 -3 54 -2 54 2 0 4 -9 19 -20 33 -35 45 -121 45 -165 1 -11 -11 -16
-9 -29 11 -52 81 -51 70 -13 99 56 43 136 51 227 24z m514 2 c44 -16 59 -63
63 -190 2 -63 5 -143 6 -177 l3 -63 -78 0 -78 0 10 26 c6 14 10 81 10 150 0
112 -2 126 -21 145 -20 20 -32 21 -71 4 -24 -10 -22 1 10 60 35 64 69 75 146
45z m-1930 -412 c7 -16 1 -18 -74 -18 -75 0 -81 2 -74 18 4 9 10 76 12 148 4
143 -10 204 -45 204 -10 0 19 13 65 29 46 16 87 32 90 36 4 4 9 -85 12 -197 3
-111 9 -211 14 -220z m1746 365 c1 -32 2 -131 3 -221 l2 -162 -77 0 -77 0 10
29 c6 17 9 91 7 171 -3 133 -4 143 -25 160 l-23 18 33 6 c17 3 55 17 82 30 28
14 53 25 58 25 4 1 7 -25 7 -56z m-1250 -577 c14 -40 3 -47 -22 -13 -14 20
-28 27 -51 27 -18 0 -37 -4 -43 -8 -41 -27 -46 -121 -9 -157 32 -33 87 -34
109 -3 19 26 32 18 17 -11 -6 -11 -29 -26 -50 -32 -33 -10 -45 -9 -77 7 -50
24 -66 56 -61 118 4 41 10 55 36 78 28 25 39 29 86 26 50 -3 56 -5 65 -32z
m150 24 c0 -5 -4 -10 -10 -10 -6 0 -10 -38 -10 -94 0 -76 3 -95 16 -100 27
-10 61 4 73 31 7 14 14 23 17 20 7 -7 -9 -67 -18 -67 -5 0 -40 0 -80 0 -56 0
-69 3 -60 12 15 15 17 198 2 198 -5 0 -10 5 -10 10 0 6 18 10 40 10 22 0 40
-4 40 -10z m278 -7 c-2 -22 51 -183 65 -200 7 -10 -1 -13 -34 -13 -29 0 -39 3
-30 9 9 6 11 18 7 34 -4 19 -14 26 -41 29 -19 2 -42 0 -50 -5 -18 -10 -20 -53
-2 -60 6 -3 -3 -6 -22 -6 -25 -1 -31 2 -24 12 17 21 72 197 62 197 -6 0 -7 5
-4 10 3 6 21 10 40 10 26 0 33 -4 33 -17z m281 -18 c11 -41 3 -45 -21 -12 -22
30 -67 37 -87 13 -18 -22 -2 -45 51 -72 49 -25 69 -53 60 -86 -9 -35 -33 -43
-114 -37 -21 1 -27 8 -30 30 -5 35 -2 36 28 4 24 -26 49 -31 72 -16 25 15 7
46 -42 72 -54 29 -66 43 -66 77 0 40 34 63 91 60 46 -3 50 -5 58 -33z m223 -1
c10 -39 2 -42 -23 -10 -16 21 -28 26 -53 24 -25 -2 -32 -8 -34 -30 -3 -24 2
-30 35 -45 49 -22 83 -52 83 -73 0 -43 -53 -75 -98 -59 -13 5 -24 4 -28 -3 -9
-14 -24 11 -24 41 l0 25 29 -28 c37 -36 75 -33 79 7 3 24 -2 29 -40 46 -82 35
-101 81 -51 120 20 17 37 20 72 17 40 -3 46 -7 53 -32z m153 26 c3 -5 1 -10
-4 -10 -16 0 -15 -197 2 -203 6 -3 -10 -6 -38 -6 -39 0 -46 2 -32 10 14 8 17
25 17 100 0 70 -3 91 -15 95 -8 4 -12 10 -9 15 7 12 71 11 79 -1z m258 -24
c13 -38 1 -44 -24 -12 -17 22 -28 27 -58 24 -30 -3 -39 -9 -54 -40 -47 -96 47
-195 120 -126 20 18 23 19 23 5 0 -10 -15 -26 -32 -37 -102 -63 -212 73 -142
175 23 32 56 45 109 41 43 -3 50 -7 58 -30z"/>
<path d="M2637 3770 c-26 -16 -51 -40 -56 -53 -5 -12 -12 -79 -16 -148 l-7
-125 31 -32 c106 -106 231 9 231 213 0 161 -70 217 -183 145z"/>
<path d="M1780 3797 c-30 -15 -67 -68 -80 -116 -17 -62 -12 -191 9 -238 21
-46 45 -63 88 -63 28 0 93 33 93 48 0 4 9 70 20 147 11 77 20 150 20 162 0 42
-103 84 -150 60z"/>
<path d="M2783 2145 c-28 -12 -63 -58 -63 -84 0 -22 33 -42 59 -36 43 11 61
34 61 80 0 50 -13 58 -57 40z"/>
<path d="M2293 1690 c-6 -14 -13 -37 -17 -52 -6 -27 -5 -28 29 -28 40 0 40 3
10 75 l-13 30 -9 -25z"/>
</g>
</svg>
