<?xml version="1.0" standalone="no"?>
<!DOCTYPE svg PUBLIC "-//W3C//DTD SVG 20010904//EN"
 "http://www.w3.org/TR/2001/REC-SVG-20010904/DTD/svg10.dtd">
<svg version="1.0" xmlns="http://www.w3.org/2000/svg"
 width="500.000000pt" height="500.000000pt" viewBox="0 0 500.000000 500.000000"
 preserveAspectRatio="xMidYMid meet">

<g transform="translate(0.000000,500.000000) scale(0.100000,-0.100000)"
fill="#000000" stroke="none">
<path d="M0 2500 l0 -2500 2500 0 2500 0 0 2500 0 2500 -2500 0 -2500 0 0
-2500z m3536 1681 c-3 -20 -7 -74 -10 -121 -10 -153 -57 -744 -62 -777 -5 -34
-4 -34 -175 -82 -104 -30 -112 -25 -105 58 4 36 20 253 37 481 16 228 32 417
35 420 10 10 259 67 272 62 9 -3 12 -16 8 -41z m868 43 c9 -3 16 -11 16 -17 0
-21 -83 -232 -94 -239 -6 -4 -56 -8 -111 -8 l-101 0 -28 -312 c-15 -172 -30
-329 -33 -348 l-5 -36 -125 -43 c-80 -28 -128 -40 -134 -34 -10 10 0 169 46
716 l5 57 -120 0 c-100 0 -120 2 -120 15 0 11 65 195 75 212 1 2 459 28 635
36 36 2 68 4 72 5 3 1 13 -1 22 -4z m-3146 -61 c70 -4 92 -9 92 -20 0 -8 -72
-149 -160 -315 -88 -165 -160 -304 -160 -310 0 -6 56 -9 157 -7 118 3 157 1
161 -9 4 -13 -101 -228 -124 -252 -12 -13 -64 -15 -314 -18 -287 -3 -299 -2
-309 16 -9 16 18 70 164 326 96 168 175 311 175 316 0 6 -68 10 -179 10 -99 0
-182 4 -185 9 -7 10 76 215 96 239 7 8 21 18 33 23 20 9 379 4 553 -8z m1338
-203 c-7 -53 -3 -58 29 -36 46 31 139 57 206 57 106 1 174 -44 221 -146 20
-44 23 -65 22 -175 0 -110 -3 -133 -26 -191 -33 -84 -64 -133 -119 -186 -93
-89 -218 -111 -327 -56 -31 15 -60 29 -63 31 -4 1 -10 -46 -14 -105 -4 -59
-10 -128 -14 -152 l-6 -44 -121 -33 c-67 -17 -127 -28 -134 -24 -10 6 -3 116
29 506 23 275 43 509 46 520 4 19 18 24 94 38 49 9 108 23 132 30 24 8 46 14
48 15 2 1 1 -21 -3 -49z m-443 -294 c-35 -306 -35 -321 -19 -349 9 -17 13 -33
9 -37 -14 -12 -181 -80 -196 -80 -9 0 -20 18 -27 46 l-13 45 -31 -30 c-113
-110 -304 -72 -401 80 -94 146 -65 400 61 539 20 22 63 53 96 70 51 25 73 30
132 30 60 0 80 -5 125 -30 56 -31 71 -31 71 0 0 14 10 21 34 25 59 12 181 21
188 16 3 -4 -10 -150 -29 -325z m117 -1422 c0 -184 4 -303 10 -315 10 -18 7
-19 -65 -19 l-75 0 -1 68 0 67 -23 -59 c-27 -68 -46 -86 -94 -86 -26 0 -43 9
-72 38 -45 45 -63 100 -63 195 0 152 102 248 227 214 l29 -8 -5 52 c-3 32 -12
57 -22 64 -23 17 -20 22 17 29 17 4 52 18 77 31 25 12 48 23 53 24 4 1 7 -132
7 -295z m-1250 115 c35 -83 67 -152 70 -154 3 -2 35 65 71 148 l65 152 75 3
74 3 -3 -280 c-2 -189 0 -287 8 -301 10 -19 8 -20 -79 -20 l-90 0 10 28 c5 15
8 92 7 171 l-3 143 -65 -156 c-35 -86 -67 -156 -70 -156 -3 0 -23 44 -44 98
-22 53 -52 124 -68 157 l-27 60 -1 -140 c0 -77 4 -155 9 -173 l10 -32 -90 0
c-87 0 -89 1 -79 20 8 14 10 112 8 300 l-3 280 75 0 75 0 65 -151z m2705 -9
l45 0 0 -60 0 -60 -45 0 -45 0 0 -92 c0 -51 4 -99 9 -107 6 -9 21 -12 45 -9
38 4 38 4 51 -59 5 -25 2 -34 -14 -42 -38 -21 -104 -24 -144 -7 -58 24 -77 74
-77 209 0 100 -1 107 -20 107 -18 0 -20 7 -20 54 l0 53 68 51 c38 28 75 59 83
68 12 15 14 11 17 -44 l3 -62 44 0z m-2008 -11 c40 -13 97 -75 113 -124 17
-53 9 -161 -16 -210 -40 -77 -149 -121 -241 -96 -141 38 -196 226 -107 363 49
75 143 100 251 67z m918 -10 c45 -26 68 -73 62 -121 -10 -74 -65 -108 -172
-108 -72 0 -83 -12 -45 -50 26 -26 89 -27 122 0 l25 19 38 -39 39 -40 -25 -26
c-50 -55 -131 -76 -211 -54 -168 47 -198 315 -47 414 58 37 157 40 214 5z
m412 5 c3 -8 0 -37 -7 -65 -10 -40 -16 -49 -29 -44 -9 4 -34 9 -57 12 -67 9
-74 -6 -74 -158 0 -72 5 -139 10 -150 10 -18 7 -19 -75 -19 -82 0 -85 1 -75
19 5 11 10 84 10 166 0 142 -1 147 -25 170 -20 21 -21 25 -7 25 14 0 66 20
150 57 9 4 12 -8 12 -43 l0 -49 19 30 c34 56 69 76 119 67 13 -3 26 -11 29
-18z m333 -12 c78 -38 100 -84 100 -208 0 -100 10 -140 35 -146 10 -2 -11 -17
-48 -36 -36 -18 -72 -30 -81 -26 -17 7 -36 62 -36 109 0 28 -3 25 -45 -37 -51
-77 -84 -91 -148 -65 -70 30 -76 138 -10 202 42 40 91 58 148 53 l40 -3 -37
-17 c-33 -15 -68 -60 -68 -87 0 -22 33 -42 59 -36 49 12 62 33 60 99 -2 54 -6
64 -33 90 -26 24 -36 27 -74 23 -25 -3 -53 -14 -66 -26 l-23 -22 -31 48 c-34
52 -32 62 22 90 72 38 151 36 236 -5z m750 13 c70 -36 97 -114 60 -173 -26
-42 -69 -60 -145 -62 -84 -2 -85 -2 -36 20 52 24 70 45 71 83 0 52 -67 48
-100 -6 -24 -38 -25 -75 -6 -122 23 -54 97 -64 147 -20 13 13 20 9 51 -29 l37
-43 -27 -26 c-72 -69 -181 -75 -268 -15 -118 81 -107 319 17 384 64 32 144 36
199 9z m-2007 -612 c21 -19 22 -66 3 -82 -12 -10 -10 -16 10 -36 21 -21 22
-28 13 -49 -14 -30 -34 -36 -124 -36 -52 1 -66 3 -52 11 24 14 26 199 1 199
-8 0 -12 5 -8 11 9 16 135 1 157 -18z m223 9 c-7 -20 35 -152 59 -189 15 -23
15 -23 -26 -23 -32 0 -39 3 -31 13 25 31 -22 69 -75 59 -28 -5 -38 -43 -16
-59 14 -11 11 -13 -21 -13 -32 0 -36 2 -27 14 18 22 71 185 64 201 -4 12 4 15
37 15 35 0 41 -3 36 -18z m276 -18 c10 -39 2 -42 -23 -10 -16 21 -28 26 -53
24 -25 -2 -32 -8 -34 -30 -3 -24 2 -30 35 -45 49 -22 83 -52 83 -74 0 -30 -33
-60 -65 -60 -72 1 -80 5 -83 36 l-4 30 30 -28 c39 -37 76 -34 80 6 3 24 -2 30
-35 43 -82 34 -105 85 -56 123 20 17 37 20 72 17 40 -3 46 -7 53 -32z m158 26
c0 -5 -4 -10 -10 -10 -15 0 -13 -183 2 -198 9 -9 2 -12 -32 -12 -34 0 -41 3
-32 12 15 15 17 198 2 198 -5 0 -10 5 -10 10 0 6 18 10 40 10 22 0 40 -4 40
-10z m254 -15 c11 -41 6 -48 -19 -21 -32 34 -87 36 -109 4 -23 -33 -21 -109 5
-142 26 -33 79 -36 110 -5 18 18 20 19 17 3 -2 -10 -18 -27 -36 -37 -29 -17
-39 -18 -72 -8 -52 16 -80 52 -80 107 0 86 40 125 127 122 43 -2 53 -6 57 -23z"/>
<path d="M2637 3770 c-26 -16 -51 -40 -56 -53 -5 -12 -12 -79 -16 -148 l-7
-125 31 -32 c106 -106 231 9 231 213 0 161 -70 217 -183 145z"/>
<path d="M1780 3797 c-30 -15 -67 -68 -80 -116 -17 -62 -12 -191 9 -238 21
-46 45 -63 88 -63 28 0 93 33 93 48 0 4 9 70 20 147 11 77 20 150 20 162 0 42
-103 84 -150 60z"/>
<path d="M2064 2231 c-39 -24 -58 -76 -51 -139 8 -71 61 -96 105 -49 19 20 22
35 22 109 0 69 -3 87 -16 92 -23 9 -26 8 -60 -13z"/>
<path d="M1593 2225 c-29 -20 -47 -78 -38 -123 13 -73 75 -104 125 -64 28 23
39 106 20 153 -19 45 -68 61 -107 34z"/>
<path d="M2491 2219 c-43 -40 -56 -109 -20 -109 57 0 127 81 99 115 -18 21
-52 19 -79 -6z"/>
<path d="M2030 1680 c0 -46 2 -50 23 -50 30 0 47 18 47 50 0 32 -17 50 -47 50
-21 0 -23 -4 -23 -50z"/>
<path d="M2030 1581 c0 -22 5 -43 11 -46 17 -11 58 4 69 25 13 25 -18 60 -55
60 -22 0 -25 -4 -25 -39z"/>
<path d="M2278 1660 l-16 -50 35 0 c32 0 35 2 29 25 -8 32 -25 75 -29 75 -2 0
-10 -22 -19 -50z"/>
</g>
</svg>
